<svg width="1497" height="1226" xmlns="http://www.w3.org/2000/svg" xmlns:xlink="http://www.w3.org/1999/xlink" xml:space="preserve" overflow="hidden"><defs><clipPath id="clip0"><rect x="1271" y="709" width="1497" height="1226"/></clipPath><clipPath id="clip1"><rect x="1270" y="941" width="994" height="994"/></clipPath><clipPath id="clip2"><rect x="1270" y="941" width="994" height="994"/></clipPath><clipPath id="clip3"><rect x="1270" y="941" width="994" height="994"/></clipPath><clipPath id="clip4"><rect x="2231" y="709" width="537" height="537"/></clipPath><clipPath id="clip5"><rect x="2231" y="709" width="537" height="537"/></clipPath><clipPath id="clip6"><rect x="2231" y="709" width="537" height="537"/></clipPath></defs><g clip-path="url(#clip0)" transform="translate(-1271 -709)"><g clip-path="url(#clip1)"><g clip-path="url(#clip2)"><g clip-path="url(#clip3)"><path d="M1767.73 1419.03C1742.03 1419.03 1721.19 1439.86 1721.19 1465.57 1723.4 1605.7 1705.4 1740.78 1667.46 1875.87 1662.17 1894.72 1671.63 1935 1712.3 1935 1732.63 1935 1751.31 1921.58 1757.09 1901.02 1783.33 1808.1 1817.29 1657.79 1814.26 1465.57 1814.28 1439.88 1793.45 1419.03 1767.73 1419.03ZM1766.06 1260.52C1647.25 1260.38 1564.34 1351.81 1565.99 1456.58 1567.45 1549.55 1558.72 1642.59 1540.06 1733.04 1534.84 1758.22 1551.06 1782.87 1576.21 1788.05 1601.52 1793.23 1626 1777.07 1631.21 1751.9 1651.27 1654.75 1660.64 1554.89 1659.08 1455.12 1658.29 1404.79 1697.72 1353.32 1764.69 1353.61 1825.41 1354.52 1875.53 1402.76 1876.44 1461.19 1877.93 1554.38 1870.99 1648.02 1855.86 1739.6 1851.65 1764.93 1868.84 1788.9 1894.19 1793.09 1932.92 1799.55 1946.18 1763.8 1947.68 1754.75 1963.73 1657.72 1971.06 1558.46 1969.53 1459.74 1967.83 1351.52 1876.56 1262.15 1766.06 1260.52ZM1551.39 1222.15C1531.41 1205.98 1502.18 1208.97 1485.91 1228.9 1436.22 1290 1409.52 1367.15 1410.76 1446.12 1411.9 1519.01 1405.97 1592.1 1393.09 1663.44 1388.55 1688.75 1405.33 1712.95 1430.64 1717.53 1469.64 1724.32 1483.14 1688.81 1484.73 1679.98 1498.67 1602.71 1505.09 1523.54 1503.85 1444.67 1502.94 1386.72 1521.69 1332.41 1558.16 1287.63 1574.35 1267.69 1571.32 1238.39 1551.39 1222.15ZM1763.7 1101.27C1733.81 1100.47 1703.83 1104.06 1674.91 1110.91 1649.91 1116.84 1634.43 1141.9 1640.33 1166.94 1646.26 1191.94 1671.36 1207.34 1696.36 1201.52 1717.79 1196.46 1739.94 1194.21 1762.3 1194.36 1908.6 1196.55 2029.42 1313.64 2031.65 1455.37 2032.8 1528.84 2029.17 1602.98 2020.83 1675.75 2017.92 1701.3 2036.25 1724.39 2061.77 1727.3 2094.2 1731.09 2111.25 1704.26 2113.32 1686.36 2122.14 1609.21 2125.95 1531.56 2124.75 1453.92 2121.72 1262.4 1959.76 1104.18 1763.7 1101.27ZM2252.58 1336.81C2247.03 1311.76 2222.5 1295.7 2197.09 1301.38 2171.99 1306.93 2156.13 1331.75 2161.67 1356.87 2170.81 1398.39 2171.2 1429.42 2170.79 1476.34 2170.58 1502.08 2191.25 1523.06 2216.95 1523.27L2217.34 1523.27C2242.88 1523.27 2263.67 1502.7 2263.88 1477.11 2264.23 1434.1 2264.66 1391.57 2252.58 1336.81ZM2174.77 1160.87C2080.31 1026.29 1925.76 944.502 1761.31 942.039 1625.96 940.41 1500.77 990.312 1407.65 1083.46 1317.72 1173.51 1269.25 1293.12 1271.27 1420.37L1271.04 1462.01C1270.28 1487.7 1290.49 1509.15 1316.19 1509.89 1316.64 1509.93 1317.12 1509.93 1317.59 1509.93 1342.64 1509.93 1363.34 1489.95 1364.07 1464.74L1364.38 1418.89C1362.77 1317.07 1401.54 1221.34 1473.54 1149.31 1548.71 1074.06 1650.69 1033.58 1759.96 1035.15 1894.65 1037.15 2021.26 1104.12 2098.62 1214.34 2113.38 1235.4 2142.38 1240.42 2163.44 1225.7 2184.46 1210.92 2189.54 1181.89 2174.77 1160.87Z" fill="#575756"/></g></g></g><g clip-path="url(#clip4)"><g clip-path="url(#clip5)"><g clip-path="url(#clip6)"><path d="M2259.57 856.018 2259.57 796.292C2259.57 762.555 2285.55 736.566 2319.29 736.566L2379.02 736.566C2386.63 736.566 2392.8 730.395 2392.8 722.783 2392.8 715.171 2386.63 709 2379.02 709L2319.29 709C2270.33 709 2232 747.331 2232 796.292L2232 856.018C2232 863.629 2238.17 869.8 2245.78 869.8 2253.4 869.8 2259.57 863.629 2259.57 856.018Z" fill="#575756"/><path d="M27.5657 147.017 27.5657 87.2916C27.5657 53.5549 53.5549 27.5657 87.2916 27.5657L147.017 27.5657C154.629 27.5657 160.8 21.3949 160.8 13.7828 160.8 6.17079 154.629 0 147.017 0L87.2916 0C38.3308 0 0 38.3308 0 87.2916L0 147.017C0 154.629 6.17079 160.8 13.7828 160.8 21.3949 160.8 27.5657 154.629 27.5657 147.017Z" fill="#575756" transform="matrix(-1 0 0 1 2768 709)"/><path d="M27.5657 147.017 27.5657 87.2916C27.5657 53.5549 53.5549 27.5657 87.2916 27.5657L147.017 27.5657C154.629 27.5657 160.8 21.3949 160.8 13.7828 160.8 6.17079 154.629 0 147.017 0L87.2916 0C38.3308 0 0 38.3308 0 87.2916L0 147.017C0 154.629 6.17079 160.8 13.7828 160.8 21.3949 160.8 27.5657 154.629 27.5657 147.017Z" fill="#575756" transform="matrix(1 0 0 -1 2232 1245)"/><path d="M2740.43 1097.98 2740.43 1157.71C2740.43 1191.45 2714.44 1217.43 2680.71 1217.43L2620.98 1217.43C2613.37 1217.43 2607.2 1223.61 2607.2 1231.22 2607.2 1238.83 2613.37 1245 2620.98 1245L2680.71 1245C2729.67 1245 2768 1206.67 2768 1157.71L2768 1097.98C2768 1090.37 2761.83 1084.2 2754.22 1084.2 2746.6 1084.2 2740.43 1090.37 2740.43 1097.98Z" fill="#575756"/><path d="M2377.75 911.428 2377.75 949.735C2377.75 957.664 2383.75 964.092 2391.15 964.092 2398.55 964.092 2404.55 957.664 2404.55 949.735L2404.55 911.428C2404.55 903.498 2398.55 897.07 2391.15 897.07 2383.75 897.07 2377.75 903.498 2377.75 911.428Z" fill="#575756"/><path d="M2598.74 911.428 2598.74 949.735C2598.74 957.664 2604.74 964.092 2612.14 964.092 2619.54 964.092 2625.54 957.664 2625.54 949.735L2625.54 911.428C2625.54 903.498 2619.54 897.07 2612.14 897.07 2604.74 897.07 2598.74 903.498 2598.74 911.428Z" fill="#575756"/><path d="M2405.74 1104.86C2431.88 1129.25 2463.54 1141.56 2500 1141.56 2536.46 1141.56 2568.12 1129.25 2594.26 1104.86 2599.95 1099.54 2600.26 1090.61 2594.94 1084.92 2589.63 1079.22 2580.7 1078.92 2575.01 1084.23 2554.13 1103.72 2529.36 1113.35 2500 1113.35 2470.64 1113.35 2445.87 1103.72 2424.99 1084.23 2419.3 1078.92 2410.37 1079.22 2405.06 1084.92 2399.74 1090.61 2400.05 1099.54 2405.74 1104.86Z" fill="#575756"/><path d="M2500 911.175 2500 1009.91C2500 1016.23 2496.91 1019.32 2490.56 1019.32L2481.19 1019.32C2473.4 1019.32 2467.09 1025.63 2467.09 1033.42 2467.09 1041.21 2473.4 1047.53 2481.19 1047.53L2490.56 1047.53C2512.48 1047.53 2528.21 1031.82 2528.21 1009.91L2528.21 911.175C2528.21 903.385 2521.9 897.07 2514.11 897.07 2506.32 897.07 2500 903.385 2500 911.175Z" fill="#575756"/></g></g></g></g></svg>